<?xml version="1.0" encoding="UTF-8" standalone="no"?>
<!-- Created with Inkscape (http://www.inkscape.org/) -->

<svg
   xmlns:dc="http://purl.org/dc/elements/1.1/"
   xmlns:cc="http://creativecommons.org/ns#"
   xmlns:rdf="http://www.w3.org/1999/02/22-rdf-syntax-ns#"
   xmlns:svg="http://www.w3.org/2000/svg"
   xmlns="http://www.w3.org/2000/svg"
   xmlns:xlink="http://www.w3.org/1999/xlink"
   xmlns:sodipodi="http://sodipodi.sourceforge.net/DTD/sodipodi-0.dtd"
   xmlns:inkscape="http://www.inkscape.org/namespaces/inkscape"
   width="16"
   height="16"
   id="svg2"
   version="1.1"
   inkscape:version="0.91 r13725"
   sodipodi:docname="swt_launcher.svg">
  <defs
     id="defs4">
    <linearGradient
       inkscape:collect="always"
       id="linearGradient8287">
      <stop
         style="stop-color:#6eb6e2;stop-opacity:1;"
         offset="0"
         id="stop8289" />
      <stop
         style="stop-color:#d3e5f4;stop-opacity:1"
         offset="1"
         id="stop8291" />
    </linearGradient>
    <linearGradient
       id="linearGradient4082-3">
      <stop
         style="stop-color:#4476aa;stop-opacity:1"
         offset="0"
         id="stop4084-8" />
      <stop
         id="stop4864-7"
         offset="0.5"
         style="stop-color:#5a9ccc;stop-opacity:1" />
      <stop
         style="stop-color:#4476aa;stop-opacity:1"
         offset="1"
         id="stop4086-2" />
    </linearGradient>
    <linearGradient
       id="linearGradient4994-4-5"
       inkscape:collect="always">
      <stop
         id="stop4996-5-9"
         offset="0"
         style="stop-color:#c5dff4;stop-opacity:1" />
      <stop
         id="stop4998-5-0"
         offset="1"
         style="stop-color:#ffffff;stop-opacity:0;" />
    </linearGradient>
    <linearGradient
       inkscape:collect="always"
       id="linearGradient4910-4-0">
      <stop
         style="stop-color:#ffffff;stop-opacity:0"
         offset="0"
         id="stop4912-8-5" />
      <stop
         style="stop-color:#c5dff4;stop-opacity:1"
         offset="1"
         id="stop4914-8-1" />
    </linearGradient>
    <linearGradient
       id="linearGradient4810-5"
       inkscape:collect="always">
      <stop
         id="stop4812-0"
         offset="0"
         style="stop-color:#be9a4b;stop-opacity:1" />
      <stop
         id="stop4814-4"
         offset="1"
         style="stop-color:#877e60;stop-opacity:1" />
    </linearGradient>
    <linearGradient
       inkscape:collect="always"
       xlink:href="#linearGradient4082-3"
       id="linearGradient8878"
       gradientUnits="userSpaceOnUse"
       gradientTransform="translate(-0.876166,-2.9997545)"
       x1="8.0137892"
       y1="1039.876"
       x2="8.0137892"
       y2="1041.8765" />
    <linearGradient
       inkscape:collect="always"
       xlink:href="#linearGradient4994-4-5"
       id="linearGradient8881"
       gradientUnits="userSpaceOnUse"
       gradientTransform="translate(17,-3.000055)"
       x1="-11"
       y1="1042.3622"
       x2="-11"
       y2="1044.3622" />
    <linearGradient
       inkscape:collect="always"
       xlink:href="#linearGradient4910-4-0"
       id="linearGradient8884"
       gradientUnits="userSpaceOnUse"
       gradientTransform="translate(17,-7.031255)"
       x1="-13"
       y1="1047.3622"
       x2="-15"
       y2="1047.3622" />
    <linearGradient
       inkscape:collect="always"
       xlink:href="#linearGradient4810-5"
       id="linearGradient8887"
       gradientUnits="userSpaceOnUse"
       gradientTransform="translate(-0.91881,-0.96425497)"
       x1="8.0137892"
       y1="1042.3622"
       x2="8.0137892"
       y2="1050.0707" />
    <linearGradient
       inkscape:collect="always"
       xlink:href="#linearGradient8287"
       id="linearGradient8293"
       x1="-18.996288"
       y1="1038.8951"
       x2="-4.991955"
       y2="1038.8951"
       gradientUnits="userSpaceOnUse"
       gradientTransform="translate(20,-1.0312501)" />
  </defs>
  <sodipodi:namedview
     id="base"
     pagecolor="#ffffff"
     bordercolor="#666666"
     borderopacity="1.0"
     inkscape:pageopacity="0.0"
     inkscape:pageshadow="2"
     inkscape:zoom="22.627416"
     inkscape:cx="6.064053"
     inkscape:cy="13.415917"
     inkscape:document-units="px"
     inkscape:current-layer="layer1"
     showgrid="true"
     inkscape:window-width="952"
     inkscape:window-height="944"
     inkscape:window-x="1606"
     inkscape:window-y="536"
     inkscape:window-maximized="0"
     showguides="true"
     inkscape:guide-bbox="true"
     inkscape:snap-global="false">
    <inkscape:grid
       type="xygrid"
       id="grid8762" />
  </sodipodi:namedview>
  <metadata
     id="metadata7">
    <rdf:RDF>
      <cc:Work
         rdf:about="">
        <dc:format>image/svg+xml</dc:format>
        <dc:type
           rdf:resource="http://purl.org/dc/dcmitype/StillImage" />
        <dc:title />
      </cc:Work>
    </rdf:RDF>
  </metadata>
  <g
     inkscape:label="Layer 1"
     inkscape:groupmode="layer"
     id="layer1"
     style="display:inline"
     transform="translate(0,-1036.3622)">
    <path
       sodipodi:nodetypes="ccccc"
       inkscape:connector-curvature="0"
       id="rect3997-9"
       d="m 1.507673,1038.8966 13.001925,0 0,10.9667 -13.001925,0 z"
       style="display:inline;fill:#f4fcff;fill-opacity:1;stroke:url(#linearGradient8887);stroke-width:1;stroke-linecap:butt;stroke-linejoin:miter;stroke-miterlimit:4;stroke-dashoffset:0;stroke-opacity:1" />
    <path
       sodipodi:nodetypes="ccccc"
       inkscape:connector-curvature="0"
       id="rect4853-82-7"
       d="m 3,1040.3298 0,9.0312 -1,0 0,-10.0312 z"
       style="display:inline;fill:url(#linearGradient8884);fill-opacity:1;stroke:none" />
    <path
       sodipodi:nodetypes="ccccc"
       inkscape:connector-curvature="0"
       id="rect4853-82-0"
       d="m 3,1040.361 10.928078,0 0,-1 -11.928078,0 z"
       style="display:inline;fill:url(#linearGradient8881);fill-opacity:1;stroke:none" />
    <path
       sodipodi:nodetypes="ccccc"
       inkscape:connector-curvature="0"
       id="rect3997-9-9"
       d="m 1.503712,1036.8611 13.004333,0 0,2.0053 -13.004333,0 z"
       style="display:inline;fill:url(#linearGradient8293);fill-opacity:1;stroke:url(#linearGradient8878);stroke-width:1;stroke-linecap:butt;stroke-linejoin:miter;stroke-miterlimit:4;stroke-dashoffset:0;stroke-opacity:1" />
    <g
       transform="matrix(0.97866974,0,0,1.0217952,0,-0.94286175)"
       style="font-style:normal;font-weight:normal;font-size:23.64578629px;line-height:125%;font-family:sans-serif;letter-spacing:0px;word-spacing:0px;fill:#2b568d;fill-opacity:1;stroke:none;stroke-width:1px;stroke-linecap:butt;stroke-linejoin:miter;stroke-opacity:1"
       id="text4170">
      <path
         d="m 6.1951357,1023.8047 q 0,0.2475 -0.098139,0.4613 -0.098139,0.2109 -0.2973042,0.3656 -0.199165,0.1548 -0.4993556,0.242 -0.3001907,0.087 -0.7042934,0.087 -0.6783154,0 -1.1055098,-0.2784 -0.4271944,-0.2785 -0.5484252,-0.81 l 0.8226378,-0.1041 q 0.066388,0.2643 0.277099,0.4191 0.2107108,0.1518 0.5772897,0.1518 0.173187,0 0.30885,-0.025 0.1385496,-0.025 0.2366888,-0.082 0.098139,-0.056 0.1500953,-0.149 0.051956,-0.095 0.051956,-0.2306 0,-0.1519 -0.092366,-0.2475 -0.08948,-0.098 -0.2309159,-0.1604 -0.1385496,-0.064 -0.30885,-0.104 -0.1703005,-0.042 -0.3290551,-0.085 -0.1356631,-0.037 -0.2857584,-0.079 -0.1472089,-0.045 -0.2886449,-0.1068 -0.141436,-0.061 -0.2684397,-0.1435 -0.1270037,-0.085 -0.2222566,-0.1996 -0.095253,-0.1153 -0.1529817,-0.2644 -0.054842,-0.1519 -0.054842,-0.346 0,-0.2755 0.1212308,-0.4753 0.1241173,-0.2025 0.3290551,-0.3318 0.2049379,-0.1322 0.4704911,-0.1941 0.2655533,-0.064 0.5541982,-0.064 0.6465644,0 1.0102569,0.2503 0.3636925,0.2475 0.4704911,0.7707 l -0.8255242,0.082 q -0.063502,-0.2559 -0.2280295,-0.3853 -0.1645275,-0.1295 -0.444513,-0.1295 -0.1818463,0 -0.3030771,0.037 -0.1183444,0.034 -0.1933921,0.095 -0.072161,0.059 -0.1039121,0.1378 -0.028865,0.076 -0.028865,0.1603 0,0.135 0.072161,0.225 0.072161,0.088 0.1876191,0.1463 0.1183444,0.059 0.2684398,0.1013 0.1529817,0.039 0.30885,0.079 0.1529817,0.037 0.3146228,0.085 0.1616412,0.045 0.3175094,0.1097 0.1558682,0.061 0.2944177,0.1491 0.1385496,0.085 0.2424617,0.2025 0.1039122,0.1181 0.1645276,0.2757 0.063502,0.1574 0.063502,0.3627 z"
         style="font-style:normal;font-variant:normal;font-weight:bold;font-stretch:normal;font-size:5.91144657px;font-family:'Liberation Mono';-inkscape-font-specification:'Liberation Mono Bold';fill:#2b568d;fill-opacity:1"
         id="path4175"
         inkscape:connector-curvature="0" />
      <path
         d="m 9.486997,1024.9679 -0.8148487,0 -0.2102836,-0.775 q -0.016428,-0.055 -0.039427,-0.1306 -0.022999,-0.075 -0.049285,-0.1596 -0.022999,-0.088 -0.049285,-0.1771 -0.022999,-0.092 -0.045999,-0.18 -0.055856,-0.2031 -0.1117129,-0.4238 -0.059142,0.2236 -0.1149988,0.4267 -0.022999,0.087 -0.049285,0.18 -0.022999,0.09 -0.049285,0.1771 -0.022999,0.084 -0.045999,0.1595 -0.022999,0.072 -0.039427,0.1278 l -0.2168548,0.775 -0.8148486,0 -0.6932784,-3.9155 0.8509909,0 0.2924256,2.0172 q 0.016428,0.1132 0.026286,0.2467 0.00986,0.1335 0.016428,0.2525 0.00657,0.1394 0.00986,0.2729 0.019714,-0.1045 0.049285,-0.2206 0.026286,-0.1016 0.059141,-0.2264 0.032857,-0.1278 0.072284,-0.2612 l 0.3252823,-0.9839 0.6407077,0 0.3252822,0.9839 q 0.042713,0.1307 0.072285,0.2584 0.032856,0.1248 0.059141,0.2263 0.029571,0.1162 0.049285,0.2235 0.00329,0 0.00657,-0.078 0.00329,-0.078 0.00986,-0.1945 0.00657,-0.116 0.016428,-0.2495 0.00986,-0.1365 0.026286,-0.2497 l 0.2759971,-2.0172 0.850992,0 -0.6899936,3.9154 z"
         style="font-style:normal;font-variant:normal;font-weight:bold;font-stretch:normal;font-size:5.91144657px;font-family:'Liberation Mono';-inkscape-font-specification:'Liberation Mono Bold';fill:#2b568d;fill-opacity:1"
         id="path4177"
         inkscape:connector-curvature="0" />
      <path
         d="m 12.147638,1021.7146 0,3.2468 -0.808957,0 0,-3.2468 -1.113343,0 0,-0.6603 3.035643,0 0,0.6603 -1.113343,0 z"
         style="font-style:normal;font-variant:normal;font-weight:bold;font-stretch:normal;font-size:5.91144657px;font-family:'Liberation Mono';-inkscape-font-specification:'Liberation Mono Bold';fill:#2b568d;fill-opacity:1"
         id="path4179"
         inkscape:connector-curvature="0" />
    </g>
  </g>
</svg>
